HIERARCHY
ROOT hip
{
	OFFSET 0.000000 0.000000 0.000000 
	CHANNELS 6 Xposition Yposition Zposition Xrotation Zrotation Yrotation
	JOINT abdomen
	{
		OFFSET 0.000000 3.402643 0.000000 
		CHANNELS 3 Xrotation Zrotation Yrotation
		JOINT chest
		{
			OFFSET 0.000000 8.438565 -0.680529 
			CHANNELS 3 Xrotation Zrotation Yrotation
			JOINT neck
			{
				OFFSET 0.000000 10.207942 -0.272212 
				CHANNELS 3 Xrotation Zrotation Yrotation
				JOINT head
				{
					OFFSET 0.000000 3.130431 0.000000 
					CHANNELS 3 Xrotation Zrotation Yrotation
					End Site
					{
						OFFSET 0.000000 3.130435 0.000000 
					}
				}
			}
			JOINT lCollar
			{
				OFFSET 3.470700 6.669187 -0.816635 
				CHANNELS 3 Yrotation Zrotation Xrotation
				JOINT lShldr
				{
					OFFSET 3.198488 0.000000 0.000000 
					CHANNELS 3 Zrotation Yrotation Xrotation
					JOINT lForeArm
					{
						OFFSET 10.139888 0.000000 0.000000 
						CHANNELS 3 Yrotation Zrotation Xrotation
						JOINT lHand
						{
							OFFSET 8.370511 0.000000 0.000000 
							CHANNELS 3 Zrotation Yrotation Xrotation
							End Site
							{
								OFFSET 4.083176 0.000000 0.000000 
							}
						}
					}
				}
			}
			JOINT rCollar
			{
				OFFSET -3.470700 6.669187 -0.816635 
				CHANNELS 3 Yrotation Zrotation Xrotation
				JOINT rShldr
				{
					OFFSET -3.198488 0.000000 0.000000 
					CHANNELS 3 Zrotation Yrotation Xrotation
					JOINT rForeArm
					{
						OFFSET -10.139888 0.000000 0.000000 
						CHANNELS 3 Yrotation Zrotation Xrotation
						JOINT rHand
						{
							OFFSET -8.370511 0.000000 0.000000 
							CHANNELS 3 Zrotation Yrotation Xrotation
							End Site
							{
								OFFSET -4.083176 0.000000 0.000000 
							}
						}
					}
				}
			}
		}
	}
	JOINT lThigh
	{
		OFFSET 5.308129 -1.633274 1.361059 
		CHANNELS 3 Xrotation Zrotation Yrotation
		JOINT lShin
		{
			OFFSET -2.041588 -20.007561 0.000000 
			CHANNELS 3 Xrotation Zrotation Yrotation
			JOINT lFoot
			{
				OFFSET 0.000000 -19.190928 -1.224953 
				CHANNELS 3 Xrotation Yrotation Zrotation
				End Site
				{
					OFFSET 0.000000 -2.449906 4.627600 
				}
			}
		}
	}
	JOINT rThigh
	{
		OFFSET -5.308129 -1.633274 1.361059 
		CHANNELS 3 Xrotation Zrotation Yrotation
		JOINT rShin
		{
			OFFSET 2.041588 -20.007561 0.000000 
			CHANNELS 3 Xrotation Zrotation Yrotation
			JOINT rFoot
			{
				OFFSET 0.000000 -19.190928 -1.224953 
				CHANNELS 3 Xrotation Yrotation Zrotation
				End Site
				{
					OFFSET 0.000000 -2.449906 4.627600 
				}
			}
		}
	}
}
MOTION
Frames: 18
Frame Time: 0.033333
3.294876 38.725281 -1.008836 -6.543068 0.146484 -0.039062 45.567902 7.561597 -31.376503 9.767848 -0.479894 -10.635205 -8.544920 -0.009766 -0.009767 3.547665 21.817675 28.840454 1.992188 -2.001953 0.000341 63.380493 -42.565796 -53.027222 -34.515724 -0.682404 8.443992 -6.042072 -34.293381 -142.720413 -2.001953 1.992188 0.000000 33.074234 122.992088 9.403259 40.280342 0.600729 8.469742 17.324429 -25.767315 260.419586 -43.665916 8.074832 -1.093482 58.976997 0.345075 -3.802862 -9.167626 -1.719625 -5.757087 -6.991621 -9.345183 2.815714 55.712261 -0.193776 3.647529 -42.506702 -3.433146 7.307924 
3.213224 38.269985 -1.090488 -7.568467 0.156250 -0.039062 45.560516 7.835507 -32.309536 9.801339 -0.710243 -10.635633 -8.544920 -0.009766 -0.009767 4.097598 22.837048 29.808632 1.992188 -2.001953 0.000341 54.876263 -38.310650 -45.081707 -45.994469 -0.607253 8.540895 -3.676072 -28.453140 -145.547363 -2.001953 1.992188 0.000000 30.824343 124.459641 8.598633 38.286835 0.611552 8.456415 16.520115 -24.333591 259.236755 -44.698147 8.201439 -1.231481 60.945415 0.473370 -3.868484 -9.124611 -1.838174 -5.887036 -8.381553 -9.231361 2.935126 59.114338 -0.408586 3.745635 -43.494728 -3.353717 7.286342 
3.173634 37.814682 -1.130077 -8.652451 0.156250 -0.039062 45.556763 7.987648 -32.847080 9.826719 -0.844586 -10.645809 -8.544920 -0.009766 -0.009767 4.483263 23.662575 30.408873 1.992188 -2.001953 0.000341 47.847305 -36.742847 -38.765381 -53.352840 -0.573117 8.607837 -2.865006 -24.622049 -145.853287 -2.001953 1.992188 0.000000 24.950571 124.693489 3.438668 38.501537 0.618897 8.460359 16.601168 -24.495447 259.376343 -45.762108 8.269867 -1.389462 62.835690 0.599772 -3.927403 -8.907140 -1.955721 -5.966666 -9.773434 -9.187847 3.090861 62.397884 -0.623746 3.855820 -44.352791 -3.279222 7.324782 
3.134048 37.359398 -1.169665 -9.726669 0.156250 -0.039062 45.554070 8.144943 -33.387535 9.842215 -0.978951 -10.646130 -8.544920 -0.009766 -0.009767 4.875553 24.497269 31.015093 1.992188 -2.001953 0.000341 41.240238 -34.596882 -32.886360 -60.718742 -0.541877 8.678361 -2.095428 -20.791695 -146.097656 -2.001953 1.992188 0.000000 19.196793 125.219917 -1.589884 38.736088 0.617125 8.463740 16.681524 -24.671782 259.506378 -46.843460 8.348835 -1.542005 64.745331 0.735626 -3.977644 -8.694906 -2.074352 -6.046220 -11.170627 -9.129952 3.255301 65.691261 -0.848811 3.938771 -45.221062 -3.221639 7.349190 
3.114252 36.884323 -1.189460 -10.830211 0.156250 -0.048828 45.548412 8.207167 -33.600739 9.841471 -1.026939 -10.646302 -8.544920 -0.009766 -0.009767 5.123145 25.169277 31.301640 1.992188 -2.001953 0.000341 34.378124 -33.301567 -25.891653 -66.853844 -0.522388 8.736568 -1.142372 -17.566240 -145.748047 -2.001953 1.992188 0.000000 12.213143 125.586716 -8.135912 39.840202 0.615339 8.472316 17.146957 -25.463655 260.162720 -47.902332 8.367466 -1.665410 66.518387 0.862208 -4.023071 -8.336937 -2.188751 -6.074312 -12.516772 -9.109544 3.449404 68.809380 -1.063379 3.998405 -45.928493 -3.155915 7.469767 
3.094459 36.409264 -1.209253 -11.943485 0.146484 -0.048828 45.535313 8.276064 -33.826393 9.842533 -1.084524 -10.646483 -8.544920 -0.009766 -0.009767 5.384006 25.846708 31.601301 1.992188 -2.001953 0.000341 27.878355 -31.335266 -19.250051 -72.987976 -0.507817 8.799379 -0.163653 -14.344056 -145.358536 -2.001953 1.992188 0.000000 5.473659 126.395943 -14.434029 40.944618 0.603198 8.470412 17.587658 -26.253918 260.823212 -48.970657 8.397771 -1.811571 68.291946 0.969726 -4.067225 -7.996195 -2.292843 -6.108430 -13.860726 -9.088264 3.662618 71.938171 -1.259647 4.040055 -46.616482 -3.086124 7.584388 
3.101883 35.936672 -1.201828 -13.047000 0.146484 -0.048828 45.542183 8.263581 -33.785103 9.850493 -1.074927 -10.646484 -8.544920 -0.009766 -0.009767 5.475900 26.382090 31.637194 1.992188 -2.001953 0.000341 21.919973 -29.760435 -12.068895 -77.649361 -0.515471 8.848221 1.435138 -11.800344 -144.595428 -2.001953 1.992188 0.000000 0.169935 127.207329 -19.148148 41.618969 0.596004 8.480312 17.849579 -26.734842 261.213593 -49.992100 8.397264 -1.937342 69.938927 1.087232 -4.086915 -7.496103 -2.418477 -6.112898 -15.192335 -9.090324 3.846286 74.888680 -1.483829 4.110322 -47.176216 -3.034514 7.720596 
3.109308 35.464085 -1.194404 -14.150516 0.146484 -0.048828 45.543331 8.242027 -33.753441 9.848690 -1.065329 -10.646483 -8.544920 -0.009766 -0.009767 5.578427 26.917791 31.680487 1.992188 -2.001953 0.000341 16.326281 -27.570673 -5.226569 -82.306206 -0.513894 8.896852 3.048452 -9.284890 -143.768570 -2.001953 1.992188 0.000000 -4.888238 128.265045 -23.606417 42.283234 0.598025 8.480475 18.117037 -27.213388 261.603394 -51.014927 8.386961 -2.066946 71.566872 1.192413 -4.100746 -7.020460 -2.530088 -6.121451 -16.513042 -9.101258 4.050230 77.841026 -1.689353 4.143036 -47.746368 -2.965850 7.837704 
3.126626 34.996437 -1.177086 -15.254058 0.146484 -0.058594 45.539570 8.180138 -33.538826 9.847628 -1.007744 -10.646301 -8.544920 -0.009766 -0.009767 5.573417 27.344040 31.516392 1.992188 -2.001953 0.000341 16.208588 -27.500591 -4.377382 -82.741165 -0.508619 8.899862 3.713346 -8.965331 -144.105804 -2.001953 1.992188 0.000000 -5.530618 128.193756 -24.102829 42.283234 0.598025 8.480475 18.117037 -27.213388 261.603394 -51.995663 8.358465 -2.142617 73.047356 1.301836 -4.131606 -6.457016 -2.625125 -6.075608 -17.789419 -9.119637 4.304336 80.579422 -1.884290 4.153912 -48.136261 -2.890566 8.037596 
3.143943 34.528790 -1.159769 -16.357582 0.156250 -0.058594 45.545036 8.117748 -33.325638 9.836802 -0.950159 -10.646128 -8.544920 -0.009766 -0.009767 5.560245 27.763081 31.354012 1.992188 -2.001953 0.000341 16.090673 -27.431215 -3.534349 -83.168564 -0.521784 8.911278 4.361500 -8.640350 -144.444260 -2.001953 1.992188 0.000000 -6.173311 128.123047 -24.606438 42.283234 0.598025 8.480475 18.117037 -27.213388 261.603394 -52.987206 8.329466 -2.235026 74.499001 1.408303 -4.150676 -5.854924 -2.738300 -6.034751 -19.061983 -9.130608 4.556909 83.317795 -2.079975 4.162490 -48.545826 -2.817306 8.225238 
3.171161 34.083374 -1.132550 -17.412294 0.156250 -0.068359 45.544514 8.024556 -32.990074 9.832132 -0.873379 -10.645811 -8.544920 -0.009766 -0.009767 5.446268 28.062479 31.058039 1.992188 -2.001953 0.000341 20.901966 -29.916075 -8.797583 -79.099152 -0.509977 8.865040 3.030365 -10.882550 -145.703918 -2.001953 1.992188 0.000000 -2.942714 126.866966 -22.057663 42.283234 0.598025 8.480475 18.117037 -27.213388 261.603394 -53.888142 8.279778 -2.280906 75.794350 1.495697 -4.184289 -5.191155 -2.820747 -5.987535 -20.286299 -9.148088 4.830803 85.832520 -2.265216 4.150428 -48.817024 -2.743838 8.438294 
3.198379 33.637959 -1.105332 -18.476748 0.156250 -0.068359 45.557808 7.921970 -32.653240 9.815894 -0.787001 -10.645663 -8.544920 -0.009766 -0.009767 5.344741 28.370762 30.767315 1.992188 -2.001953 0.000341 26.064518 -31.991421 -14.403291 -75.030121 -0.508990 8.820092 1.736159 -13.148049 -146.924408 -2.001953 1.992188 0.000000 0.484943 125.701942 -19.314480 42.283234 0.598025 8.480475 18.117037 -27.213388 261.603394 -54.798084 8.231421 -2.325249 77.090813 1.583583 -4.186455 -4.532947 -2.911787 -5.922488 -21.517136 -9.167923 5.084690 88.356392 -2.441257 4.165138 -49.087780 -2.696368 8.651354 
3.225597 33.207424 -1.078115 -19.482597 0.146484 -0.068359 45.555534 7.821509 -32.279289 9.809303 -0.700645 -10.635633 -8.544920 -0.009766 -0.009767 5.176629 28.586473 30.410423 1.992188 -2.001953 0.000341 31.617252 -34.597412 -20.455315 -69.285278 -0.523987 8.766314 0.303365 -16.322676 -147.267685 -2.001953 1.992188 0.000000 4.817688 124.465256 -15.767217 42.283234 0.598025 8.480475 18.117037 -27.213388 261.603394 -55.619263 8.182922 -2.378357 78.192215 1.662067 -4.186930 -3.794977 -3.017668 -5.848254 -22.713484 -9.179187 5.375763 90.647194 -2.606997 4.151721 -49.229588 -2.603450 8.885345 
3.252816 32.776901 -1.050896 -20.488468 0.136719 -0.078125 45.556934 7.711373 -31.902773 9.801044 -0.604667 -10.635402 -8.544920 -0.009766 -0.009767 5.030735 28.799322 30.061890 1.992188 -2.001953 0.000341 37.633881 -36.682583 -26.960838 -63.554855 -0.529390 8.705334 -1.144668 -19.498972 -147.517746 -2.001953 1.992188 0.000000 9.451206 123.381630 -11.914166 42.283234 0.598025 8.480475 18.117037 -27.213388 261.603394 -56.449917 8.124337 -2.416299 79.273804 1.739876 -4.194442 -3.058506 -3.091662 -5.802595 -23.908447 -9.197155 5.659584 92.938095 -2.763587 4.147573 -49.372856 -2.528347 9.089570 
3.284980 32.388432 -1.018732 -21.425968 0.136719 -0.078125 45.568462 7.606542 -31.548262 9.784823 -0.518286 -10.635208 -8.544920 -0.009766 -0.009767 4.848615 28.938894 29.710991 1.992188 -2.001953 0.000341 42.980053 -38.838669 -32.690086 -57.458248 -0.550204 8.641746 -2.454128 -22.764452 -146.817596 -2.001953 1.992188 0.000000 14.405115 122.509277 -7.720218 42.283234 0.598025 8.480475 18.117037 -27.213388 261.603394 -57.180412 8.075001 -2.458120 80.198647 1.807600 -4.221811 -2.324764 -3.139595 -5.714209 -25.002111 -9.197514 5.978206 94.957474 -2.890386 4.118452 -49.395260 -2.450998 9.344374 
3.317143 31.999968 -0.986568 -22.373232 0.136719 -0.078125 45.563641 7.508797 -31.195114 9.768602 -0.431905 -10.635122 -8.544920 -0.009766 -0.009767 4.680048 29.075262 29.372942 1.992188 -2.001953 0.000341 48.741287 -40.552776 -38.833324 -51.355213 -0.579880 8.584186 -3.831755 -26.002674 -146.024399 -2.001953 1.992188 0.000000 19.580376 121.852707 -3.307854 42.283234 0.598025 8.480475 18.117037 -27.213388 261.603394 -57.900539 8.026118 -2.499386 81.115196 1.875776 -4.208735 -1.588013 -3.226613 -5.630038 -26.095396 -9.207251 6.278747 96.986076 -3.056282 4.068028 -49.426678 -2.360902 9.599879 
3.336937 31.670908 -0.966774 -23.213076 0.136719 -0.078125 45.569920 7.428236 -30.931444 9.757789 -0.374317 -10.635046 -8.544920 -0.009766 -0.009767 4.539129 29.139393 29.100622 1.992188 -2.001953 0.000341 54.349091 -42.326115 -44.572765 -44.742992 -0.612623 8.524272 -5.156325 -29.357212 -144.559647 -2.001953 1.992188 0.000000 24.220917 121.506622 0.685130 42.283234 0.598025 8.480475 18.117037 -27.213388 261.603394 -58.539658 7.987745 -2.534993 81.895256 1.925263 -4.205365 -0.902769 -3.302533 -5.575112 -27.090155 -9.177837 6.542383 98.741570 -3.182883 4.044782 -49.372684 -2.267442 9.807461 
3.356729 31.341848 -0.946983 -24.062687 0.136719 -0.078125 45.575363 7.346982 -30.669083 9.745173 -0.307132 -10.634925 -8.544920 -0.009766 -0.009767 4.408452 29.209007 28.845932 1.992188 -2.001953 0.000341 60.330441 -43.652672 -50.687298 -38.137287 -0.653810 8.468522 -6.629918 -32.682793 -142.951172 -2.001953 1.992188 0.000000 28.951559 121.339920 4.766836 42.283234 0.598025 8.480475 18.117037 -27.213388 261.603394 -59.159615 7.939313 -2.565105 82.635963 1.973952 -4.210068 -0.177372 -3.374353 -5.526570 -28.077293 -9.158646 6.806901 100.507408 -3.291090 4.027111 -49.338570 -2.195982 10.005579 
